<?xml version="1.0" encoding="UTF-8"?>
<svg version="1.1" xmlns="http://www.w3.org/2000/svg" width="500" height="500">
<path d="M0 0 C4.80992703 4.01218596 9.34719237 8.20500481 13.7641449 12.64389038 C14.40716004 13.2860511 15.05017518 13.92821182 15.71267563 14.58983195 C17.84915903 16.72467893 19.98206788 18.86306048 22.11499023 21.00146484 C23.65273411 22.53949102 25.19069866 24.07729658 26.72886658 25.61489868 C30.89171817 29.77746395 35.05148432 33.9431002 39.21069598 38.10930204 C43.56242252 42.46728957 47.91699046 46.82243603 52.27125549 51.17788696 C60.5107836 59.42052029 68.74775975 67.66569893 76.98381811 75.91179907 C86.36271918 85.30188639 95.74446752 94.68912639 105.12645423 104.07613063 C124.42080223 123.3809247 143.71157842 142.68928467 163 162 C161.23637287 165.77427567 159.0585895 168.18307843 156.09130859 171.13574219 C155.59358444 171.63375839 155.09586029 172.1317746 154.58305359 172.6448822 C152.9428793 174.28366733 151.29574339 175.91526134 149.6484375 177.546875 C148.50742744 178.68415347 147.36685923 179.8218754 146.22671509 180.96002197 C143.22921238 183.94989979 140.22575149 186.93372191 137.2210083 189.9163208 C134.15413288 192.96271321 131.09293306 196.01479703 128.03125 199.06640625 C122.02637217 205.04985434 116.01518768 211.02691663 110 217 C111.20239085 220.07484708 112.38574008 222.82468791 114.2421875 225.55859375 C114.66886719 226.19216797 115.09554688 226.82574219 115.53515625 227.47851562 C116.19837891 228.44821289 116.19837891 228.44821289 116.875 229.4375 C117.30941406 230.08009766 117.74382812 230.72269531 118.19140625 231.38476562 C119.04740089 232.6507637 119.90510356 233.91560887 120.76464844 235.17919922 C122.52606868 237.77537948 124.26346646 240.38712279 126 243 C125.67 243.66 125.34 244.32 125 245 C107.84 227.84 90.68 210.68 73 193 C76.75185458 188.62283632 80.34160249 184.53687753 84.3984375 180.50390625 C84.8782608 180.02549789 85.35808411 179.54708954 85.85244751 179.05418396 C87.35759458 177.55455121 88.86621214 176.05846872 90.375 174.5625 C91.40778595 173.53474017 92.44033991 172.50674715 93.47265625 171.47851562 C95.97910287 168.98298402 98.4886708 166.49061918 101 164 C99.53144778 160.60906436 97.64705446 158.39987529 95.03903198 155.79852295 C94.21169556 154.96843719 93.38435913 154.13835144 92.5319519 153.28311157 C91.62277008 152.3811203 90.71358826 151.47912903 89.77685547 150.54980469 C88.81062587 149.58413941 87.8448368 148.61803317 86.87945557 147.65151978 C84.26015009 145.03164059 81.63472488 142.41797275 79.00816107 139.80537319 C76.2632695 137.07298585 73.52404229 134.33493204 70.78421021 131.59747314 C65.59629454 126.41577315 60.40330179 121.23919242 55.2084676 116.06442952 C49.29407035 110.17238854 43.38535248 104.27466615 37.47710586 98.37645864 C25.32438093 86.24463768 13.16453966 74.1199741 1 62 C-4.79042635 66.80997199 -10.11389049 71.97800652 -15.42358398 77.31005859 C-16.80037071 78.68662628 -16.80037071 78.68662628 -18.20497131 80.09100342 C-20.70258812 82.58833522 -23.197126 85.08872158 -25.69109225 87.58969831 C-28.30511998 90.21000926 -30.92201063 92.82745794 -33.53858948 95.44522095 C-38.48443695 100.39416715 -43.4277314 105.34565522 -48.37009722 110.29807818 C-54.00057054 115.93975807 -59.6339092 121.57857317 -65.26748168 127.21715808 C-76.84816263 138.80827038 -88.42526815 150.40294693 -100 162 C-98.53144778 165.39093564 -96.64705446 167.60012471 -94.03903198 170.20147705 C-93.21169556 171.03156281 -92.38435913 171.86164856 -91.5319519 172.71688843 C-90.62277008 173.6188797 -89.71358826 174.52087097 -88.77685547 175.45019531 C-87.81062587 176.41586059 -86.8448368 177.38196683 -85.87945557 178.34848022 C-83.26015009 180.96835941 -80.63472488 183.58202725 -78.00816107 186.19462681 C-75.2632695 188.92701415 -72.52404229 191.66506796 -69.78421021 194.40252686 C-64.59629454 199.58422685 -59.40330179 204.76080758 -54.2084676 209.93557048 C-48.29407035 215.82761146 -42.38535248 221.72533385 -36.47710586 227.62354136 C-24.32438093 239.75536232 -12.16453966 251.8800259 0 264 C1.11829227 263.04751485 2.23572573 262.09402133 3.35279846 261.1401062 C3.97516168 260.60923841 4.59752489 260.07837063 5.2387476 259.53141594 C7.38171525 257.66809708 9.40232519 255.71083508 11.40234375 253.6953125 C12.14677734 252.94765625 12.89121094 252.2 13.65820312 251.4296875 C14.41037109 250.66914063 15.16253906 249.90859375 15.9375 249.125 C17.10635742 247.949375 17.10635742 247.949375 18.29882812 246.75 C20.20154085 244.83561419 22.10186171 242.91891966 24 241 C28.24690868 242.66101892 31.15388191 245.81252808 34.33203125 248.9609375 C34.92803635 249.54791412 35.52404144 250.13489075 36.1381073 250.73965454 C37.3922274 251.97929844 38.64358151 253.22174608 39.89233398 254.46679688 C41.81110678 256.37361546 43.7477424 258.26098794 45.68554688 260.1484375 C46.90218592 261.3556187 48.11772004 262.56391474 49.33203125 263.7734375 C49.91523636 264.33711029 50.49844147 264.90078308 51.09931946 265.48153687 C52.69848633 267.09912109 52.69848633 267.09912109 55 270 C54.8657003 274.13693958 52.05486399 276.32586114 49.26831055 279.11987305 C48.77715759 279.61628296 48.28600464 280.11269287 47.77996826 280.62414551 C46.15634567 282.26095864 44.52200969 283.88656911 42.88671875 285.51171875 C41.75385833 286.64660017 40.62144356 287.7819266 39.48945618 288.91767883 C37.11606606 291.29549103 34.73733644 293.66779444 32.35473633 296.03637695 C29.30123571 299.07278594 26.26140012 302.12246331 23.22543621 305.17639446 C20.88971086 307.52296066 18.54688671 309.86233403 16.2018528 312.1995945 C15.07811028 313.32133585 13.95659181 314.4453098 12.83734703 315.57153893 C11.27200069 317.14450448 9.69735783 318.70753126 8.11987305 320.26831055 C7.22576218 321.16003464 6.33165131 322.05175873 5.41044617 322.97050476 C3.0313656 324.97359147 2.01747521 325.67027571 -1 326 C-3.42151943 324.07143633 -5.47917891 322.1727529 -7.63116455 319.97010803 C-8.29611773 319.30942697 -8.96107091 318.64874592 -9.64617419 317.96804422 C-11.88458591 315.73790742 -14.10459354 313.49029276 -16.32519531 311.24243164 C-17.92075053 309.64546694 -19.51740581 308.04960069 -21.11508179 306.45475769 C-25.46068582 302.11059308 -29.79066101 297.75114205 -34.11808872 293.38888097 C-38.63888863 288.83690558 -43.17377393 284.29900846 -47.70721436 279.7596283 C-55.3180978 272.13495086 -62.92016879 264.50161124 -70.515625 256.86157227 C-78.33985088 248.99146864 -86.16929821 241.12662067 -94.00585938 233.26879883 C-94.48870176 232.78464282 -94.97154415 232.30048681 -95.46901813 231.80165941 C-97.89126908 229.37288339 -100.3136234 226.9442105 -102.73602915 224.51558888 C-122.84007195 204.35969158 -142.92574594 184.18556251 -163 164 C-161.27067987 160.30754535 -159.17695068 157.93261425 -156.2734375 155.04296875 C-155.8069278 154.57691727 -155.34041809 154.11086578 -154.85977173 153.63069153 C-153.8719326 152.64586655 -152.88167105 151.66346619 -151.88916016 150.68334961 C-150.39566953 149.20791957 -148.9101425 147.7248426 -147.42578125 146.24023438 C-143.58657996 142.42058306 -139.76012905 138.63330939 -135.62734985 135.1293335 C-129.49315095 129.77238499 -123.81305614 123.94428517 -118.06640625 118.17993164 C-116.77481725 116.88806016 -115.4830072 115.59640965 -114.19099426 114.30496216 C-110.70379996 110.81805343 -107.21968607 107.32808167 -103.73613739 103.83753133 C-100.08777277 100.18289315 -96.43655461 96.53110806 -92.78564453 92.87901306 C-85.88132954 85.97159653 -78.9795665 79.06163601 -72.07872772 72.15074676 C-64.21852292 64.27934421 -56.35546057 56.41079881 -48.4921627 48.54248631 C-32.32493786 32.36482374 -16.16128597 16.18359527 0 0 Z " fill="#028AC4" transform="translate(185,77)"/>
<path d="M0 0 C2.7836185 1.27192161 4.83135597 2.58187534 6.99097061 4.74487495 C7.5562781 5.30620034 8.12158558 5.86752573 8.7040236 6.44586098 C9.31492396 7.06258703 9.92582432 7.67931307 10.55523682 8.31472778 C11.21202289 8.96980501 11.86880897 9.62488224 12.54549766 10.29981029 C14.74898215 12.49999585 16.94523398 14.70726231 19.14160156 16.91455078 C20.71809667 18.49160992 22.29503208 20.06822902 23.87237549 21.6444397 C28.15748404 25.9289734 32.43638939 30.21965453 36.71423054 34.51144266 C41.18431571 38.99401313 45.66004872 43.47093696 50.13519287 47.94845581 C57.64706438 55.46584131 65.15543162 62.98670901 72.66113281 70.51025391 C80.39186138 78.25934201 88.12468886 86.00632563 95.86035156 93.75048828 C96.33721996 94.22788213 96.81408836 94.70527597 97.30540732 95.1971363 C99.69774175 97.59208082 102.09011755 99.98698403 104.4825139 102.38186669 C124.3280918 122.24817619 144.16633741 142.12179531 164 162 C162.72807839 164.7836185 161.41812466 166.83135597 159.25512505 168.99097061 C158.41313696 169.83893184 158.41313696 169.83893184 157.55413902 170.7040236 C156.93741297 171.31492396 156.32068693 171.92582432 155.68527222 172.55523682 C155.03019499 173.21202289 154.37511776 173.86880897 153.70018971 174.54549766 C151.50000415 176.74898215 149.29273769 178.94523398 147.08544922 181.14160156 C145.50839008 182.71809667 143.93177098 184.29503208 142.3555603 185.87237549 C138.0710266 190.15748404 133.78034547 194.43638939 129.48855734 198.71423054 C125.00598687 203.18431571 120.52906304 207.66004872 116.05154419 212.13519287 C108.53415869 219.64706438 101.01329099 227.15543162 93.48974609 234.66113281 C85.74065799 242.39186138 77.99367437 250.12468886 70.24951172 257.86035156 C69.77211787 258.33721996 69.29472403 258.81408836 68.8028637 259.30540732 C66.40791918 261.69774175 64.01301597 264.09011755 61.61813331 266.4825139 C41.75182381 286.3280918 21.87820469 306.16633741 2 326 C-0.7836185 324.72807839 -2.83135597 323.41812466 -4.99097061 321.25512505 C-5.5562781 320.69379966 -6.12158558 320.13247427 -6.7040236 319.55413902 C-7.31492396 318.93741297 -7.92582432 318.32068693 -8.55523682 317.68527222 C-9.21202289 317.03019499 -9.86880897 316.37511776 -10.54549766 315.70018971 C-12.74898215 313.50000415 -14.94523398 311.29273769 -17.14160156 309.08544922 C-18.71809667 307.50839008 -20.29503208 305.93177098 -21.87237549 304.3555603 C-26.15748404 300.0710266 -30.43638939 295.78034547 -34.71423054 291.48855734 C-39.18431571 287.00598687 -43.66004872 282.52906304 -48.13519287 278.05154419 C-55.64706438 270.53415869 -63.15543162 263.01329099 -70.66113281 255.48974609 C-78.39186138 247.74065799 -86.12468886 239.99367437 -93.86035156 232.24951172 C-94.33721996 231.77211787 -94.81408836 231.29472403 -95.30540732 230.8028637 C-97.69774175 228.40791918 -100.09011755 226.01301597 -102.4825139 223.61813331 C-122.3280918 203.75182381 -142.16633741 183.87820469 -162 164 C-160.23637287 160.22572433 -158.0585895 157.81692157 -155.09130859 154.86425781 C-154.59358444 154.36624161 -154.09586029 153.8682254 -153.58305359 153.3551178 C-151.9428793 151.71633267 -150.29574339 150.08473866 -148.6484375 148.453125 C-147.50742744 147.31584653 -146.36685923 146.1781246 -145.22671509 145.03997803 C-142.22921238 142.05010021 -139.22575149 139.06627809 -136.2210083 136.0836792 C-133.15413288 133.03728679 -130.09293306 129.98520297 -127.03125 126.93359375 C-121.02637217 120.95014566 -115.01518768 114.97308337 -109 109 C-110.44160967 105.26998668 -112.08742197 102.11247994 -114.29296875 98.76953125 C-115.2375293 97.31836914 -115.2375293 97.31836914 -116.20117188 95.83789062 C-117.53429821 93.80739633 -118.87027555 91.77877122 -120.20898438 89.75195312 C-120.83482422 88.78837891 -121.46066406 87.82480469 -122.10546875 86.83203125 C-122.68449951 85.95264893 -123.26353027 85.0732666 -123.86010742 84.16723633 C-124.23627197 83.45204834 -124.61243652 82.73686035 -125 82 C-124.67 81.34 -124.34 80.68 -124 80 C-117.18813287 86.69616451 -110.38974409 93.40563758 -103.60831356 100.13262558 C-100.45919912 103.2556141 -97.30559 106.37376966 -94.14135742 109.48144531 C-91.08950936 112.47908175 -88.04993555 115.4886665 -85.01858711 118.50702667 C-83.85826563 119.65808885 -82.69354266 120.80473112 -81.52445793 121.94689178 C-79.89116812 123.54403658 -78.2740516 125.1559971 -76.65991211 126.77246094 C-75.27091957 128.14479889 -75.27091957 128.14479889 -73.85386658 129.54486084 C-72 132 -72 132 -72.12353516 134.21922302 C-73.18012493 136.36597284 -74.39072773 137.74672879 -76.09765625 139.42578125 C-76.73082764 140.05444092 -77.36399902 140.68310059 -78.01635742 141.33081055 C-78.69158447 141.98476807 -79.36681152 142.63872559 -80.0625 143.3125 C-80.74481689 143.98385986 -81.42713379 144.65521973 -82.13012695 145.34692383 C-86.13557128 149.2645776 -90.20027016 153.08500506 -94.48046875 156.703125 C-96.42810081 158.36537139 -98.22746837 160.15361289 -100 162 C-98.53144778 165.39093564 -96.64705446 167.60012471 -94.03903198 170.20147705 C-93.21169556 171.03156281 -92.38435913 171.86164856 -91.5319519 172.71688843 C-90.62277008 173.6188797 -89.71358826 174.52087097 -88.77685547 175.45019531 C-87.81062587 176.41586059 -86.8448368 177.38196683 -85.87945557 178.34848022 C-83.26015009 180.96835941 -80.63472488 183.58202725 -78.00816107 186.19462681 C-75.2632695 188.92701415 -72.52404229 191.66506796 -69.78421021 194.40252686 C-64.59629454 199.58422685 -59.40330179 204.76080758 -54.2084676 209.93557048 C-48.29407035 215.82761146 -42.38535248 221.72533385 -36.47710586 227.62354136 C-24.32438093 239.75536232 -12.16453966 251.8800259 0 264 C3.39093564 262.53144778 5.60012471 260.64705446 8.20147705 258.03903198 C9.03156281 257.21169556 9.86164856 256.38435913 10.71688843 255.5319519 C11.6188797 254.62277008 12.52087097 253.71358826 13.45019531 252.77685547 C14.41586059 251.81062587 15.38196683 250.8448368 16.34848022 249.87945557 C18.96835941 247.26015009 21.58202725 244.63472488 24.19462681 242.00816107 C26.92701415 239.2632695 29.66506796 236.52404229 32.40252686 233.78421021 C37.58422685 228.59629454 42.76080758 223.40330179 47.93557048 218.2084676 C53.82761146 212.29407035 59.72533385 206.38535248 65.62354136 200.47710586 C77.75536232 188.32438093 89.8800259 176.16453966 102 164 C100.53144778 160.60906436 98.64705446 158.39987529 96.03903198 155.79852295 C95.21169556 154.96843719 94.38435913 154.13835144 93.5319519 153.28311157 C92.62277008 152.3811203 91.71358826 151.47912903 90.77685547 150.54980469 C89.81062587 149.58413941 88.8448368 148.61803317 87.87945557 147.65151978 C85.26015009 145.03164059 82.63472488 142.41797275 80.00816107 139.80537319 C77.2632695 137.07298585 74.52404229 134.33493204 71.78421021 131.59747314 C66.59629454 126.41577315 61.40330179 121.23919242 56.2084676 116.06442952 C50.29407035 110.17238854 44.38535248 104.27466615 38.47710586 98.37645864 C26.32438093 86.24463768 14.16453966 74.1199741 2 62 C0.88016848 62.95189828 -0.23853581 63.90512277 -1.35676575 64.85890198 C-1.97986539 65.38958566 -2.60296503 65.92026934 -3.24494648 66.46703434 C-5.36865934 68.32200848 -7.32425369 70.29192709 -9.26171875 72.33984375 C-10.35129883 73.4680957 -10.35129883 73.4680957 -11.46289062 74.61914062 C-12.96525893 76.18482208 -14.45989181 77.75795768 -15.94726562 79.33789062 C-16.66978516 80.08103516 -17.39230469 80.82417969 -18.13671875 81.58984375 C-18.78342529 82.26909912 -19.43013184 82.94835449 -20.09643555 83.64819336 C-22 85 -22 85 -23.9299469 84.75222778 C-26.22213811 83.91927818 -27.32076753 83.04304019 -29.02441406 81.31616211 C-29.58469299 80.75565659 -30.14497192 80.19515106 -30.722229 79.61766052 C-31.31404968 79.01035599 -31.90587036 78.40305145 -32.515625 77.77734375 C-33.13145447 77.15726944 -33.74728394 76.53719513 -34.3817749 75.89833069 C-36.34500635 73.91832095 -38.29754436 71.92813081 -40.25 69.9375 C-41.58003748 68.59241465 -42.91075879 67.24800512 -44.2421875 65.90429688 C-47.50277537 62.61065094 -50.75381188 59.30783661 -54 56 C-52.41219641 52.13533667 -49.94066771 49.69940845 -46.99951172 46.77246094 C-46.492034 46.26469116 -45.98455627 45.75692139 -45.46170044 45.23376465 C-43.78906131 43.56251491 -42.10945783 41.89845444 -40.4296875 40.234375 C-39.26625722 39.07467623 -38.10326874 37.91453408 -36.94070435 36.75396729 C-33.884018 33.70490648 -30.82137256 30.66190037 -27.75744629 27.62011719 C-24.63024835 24.51340087 -21.50872493 21.40099455 -18.38671875 18.2890625 C-12.2633512 12.18712583 -6.1336764 6.09157402 0 0 Z " fill="#02618F" transform="translate(312,77)"/>
<path d="M0 0 C4.24690868 1.66101892 7.15388191 4.81252808 10.33203125 7.9609375 C10.92803635 8.54791412 11.52404144 9.13489075 12.1381073 9.73965454 C13.3922274 10.97929844 14.64358151 12.22174608 15.89233398 13.46679688 C17.81110678 15.37361546 19.7477424 17.26098794 21.68554688 19.1484375 C22.90218592 20.3556187 24.11772004 21.56391474 25.33203125 22.7734375 C25.91523636 23.33711029 26.49844147 23.90078308 27.09931946 24.48153687 C28.69848633 26.09912109 28.69848633 26.09912109 31 29 C30.86773133 33.14236937 28.04624759 35.32803223 25.25244141 38.11987305 C24.75968216 38.61628296 24.26692291 39.11269287 23.75923157 39.62414551 C22.13065206 41.26082213 20.49147568 42.88640437 18.8515625 44.51171875 C17.71623491 45.64652767 16.5814254 46.78185513 15.44711304 47.91767883 C13.06936631 50.29533588 10.686538 52.66774168 8.29980469 55.03637695 C5.23899907 58.07448279 2.18940282 61.12355037 -0.85669518 64.17639446 C-3.19829161 66.52133023 -5.54484372 68.86125374 -7.89302444 71.1995945 C-9.01949939 72.32221754 -10.14462571 73.44619551 -11.26838303 74.57153893 C-12.83859916 76.14212541 -14.4151466 77.70606154 -15.99365234 79.26831055 C-16.88998383 80.16003464 -17.78631531 81.05175873 -18.70980835 81.97050476 C-21 84 -21 84 -24 85 C-24.7240941 75.34103344 -25.21942695 65.68112847 -25.5 56 C-25.52054443 55.29603214 -25.54108887 54.59206429 -25.56225586 53.86676407 C-26.35020572 23.36911007 -26.35020572 23.36911007 -17.06286621 12.79055786 C-12.01909291 7.69547199 -6.24343181 3.50016861 0 0 Z " fill="#02618F" transform="translate(209,318)"/>
<path d="M0 0 C4.25327789 60.43109891 4.25327789 60.43109891 -6.47877502 73.03276062 C-11.1594001 77.86273945 -16.71941616 82.51777077 -23 85 C-26.17458086 84.56698198 -27.79799562 83.5729408 -30.02441406 81.31616211 C-30.86483246 80.47540382 -30.86483246 80.47540382 -31.722229 79.61766052 C-32.31404968 79.01035599 -32.90587036 78.40305145 -33.515625 77.77734375 C-34.13145447 77.15726944 -34.74728394 76.53719513 -35.3817749 75.89833069 C-37.34500635 73.91832095 -39.29754436 71.92813081 -41.25 69.9375 C-42.58003748 68.59241465 -43.91075879 67.24800512 -45.2421875 65.90429688 C-48.50277537 62.61065094 -51.75381188 59.30783661 -55 56 C-53.41244672 52.1415126 -50.94799596 49.70051535 -48.01538086 46.77246094 C-47.50950943 46.26469116 -47.003638 45.75692139 -46.48243713 45.23376465 C-44.81474762 43.56238032 -43.13998526 41.89828788 -41.46484375 40.234375 C-40.30388042 39.07460393 -39.14328667 37.91446279 -37.98304749 36.75396729 C-35.55419857 34.32668081 -33.12203089 31.90278708 -30.68725586 29.48144531 C-27.55911167 26.37033795 -24.43763833 23.25264065 -21.31838131 20.13262558 C-18.92443642 17.73895186 -16.52790005 15.34788746 -14.13046455 12.95771027 C-12.97795941 11.80839666 -11.82606719 10.65846811 -10.67478752 9.50792694 C-9.0707704 7.90606558 -7.46351197 6.30753335 -5.85522461 4.70996094 C-4.93970322 3.79825134 -4.02418182 2.88654175 -3.08091736 1.94720459 C-1 0 -1 0 0 0 Z " fill="#028AC4" transform="translate(313,77)"/>
<path d="" fill="#028AC4" transform="translate(0,0)"/>
</svg>
